PathFileType	4	(X/Y/Z)	PS_ngait_og_ss1.trc	
DataRate	CameraRate	NumFrames	NumMarkers	Units	OrigDataRate	OrigDataStartFrame	OrigNumFrames	
120.00	120.00	9	36	mm	120.00	684	132	
Frame#	Time	Sternum			Neck			RShoulder			LShoulder			Xiphoid			Thoracic			RAsis			LAsis			RPsis			LPsis			LThighSuperior			LThighInferior			LThighLateral			LShankSuperior			LShankInferior			LShankLateral			RThighSuperior			RThighInferior			RThighLateral			RShankSuperior			RShankInferior			RShankLateral			RHeel			RToe			RMidfootLateral			RHindfoot			LHeel			LToe			LMidfootMedial			LMidfootLateral			LHindfoot			LMidfootSuperior			LToeMedial			LToeLateral			Sacral			RMidfootSuperior			
		X1	Y1	Z1	X2	Y2	Z2	X3	Y3	Z3	X4	Y4	Z4	X5	Y5	Z5	X6	Y6	Z6	X7	Y7	Z7	X8	Y8	Z8	X9	Y9	Z9	X10	Y10	Z10	X11	Y11	Z11	X12	Y12	Z12	X13	Y13	Z13	X14	Y14	Z14	X15	Y15	Z15	X16	Y16	Z16	X17	Y17	Z17	X18	Y18	Z18	X19	Y19	Z19	X20	Y20	Z20	X21	Y21	Z21	X22	Y22	Z22	X23	Y23	Z23	X24	Y24	Z24	X25	Y25	Z25	X26	Y26	Z26	X27	Y27	Z27	X28	Y28	Z28	X29	Y29	Z29	X30	Y30	Z30	X31	Y31	Z31	X32	Y32	Z32	X33	Y33	Z33	X34	Y34	Z34	X35	Y35	Z35	X36	Y36	Z36	

67	0.550	715.86877	1427.97107	161.60393	553.40594	1530.96729	158.18135	593.35492	1517.39636	320.83652	591.16510	1523.38525	23.11862	745.64496	1269.29724	167.55711	469.05829	1314.11890	168.60625	655.97736	998.11285	304.89316	659.64642	1003.88586	28.66171	468.84589	1036.71252	224.15678	463.57941	1028.89453	119.16894	548.49554	831.23932	-14.52597	534.61737	598.52026	22.71231	634.45435	686.28888	64.87904	462.98734	368.13235	26.45716	369.44980	188.89043	64.37784	448.56931	263.44684	98.21822	663.46552	822.30841	342.92575	714.73840	590.38794	319.49814	745.82111	755.58673	286.74271	742.52380	434.33231	326.39404	819.96759	192.81261	294.50104	839.93671	332.10995	258.36539	781.84100	56.25941	237.64923	1084.78149	133.70398	264.91919	991.86365	79.92572	323.13281	944.52271	67.49013	312.78519	238.50253	73.28178	113.34662	554.50897	50.30764	78.12014	454.77814	34.65398	140.73495	445.57529	31.75223	21.75890	392.20789	32.95211	37.25421	433.01114	95.71183	92.72296	499.11401	32.32146	131.54111	492.94421	38.22547	27.87570	466.21265	1032.80347	171.66286	946.86615	137.98375	259.19830 
68	0.558	725.07141	1426.94373	163.32899	562.47357	1529.68237	159.92906	602.11707	1515.81348	322.45013	600.54126	1522.55615	24.76354	755.23956	1268.34106	169.03282	478.54153	1312.60437	169.41081	666.03497	996.54065	305.56329	669.52344	1002.59918	29.56930	478.81235	1035.24890	225.08955	473.41797	1027.47070	120.02757	557.18848	830.32214	-13.73082	542.83099	597.58844	23.08525	643.12671	684.82349	65.52178	468.35330	367.91290	27.03774	371.98456	190.68179	64.00706	452.32327	263.37399	98.09115	675.02002	821.48822	343.78278	726.27795	589.52399	319.83005	757.31201	755.46985	288.05191	751.30975	432.86768	325.77679	824.11688	190.29552	292.71976	846.93231	329.28229	257.24918	783.59802	57.13971	237.68425	1089.19885	124.41163	259.44971	995.83405	73.84421	319.71600	947.21991	62.98222	310.34921	239.33832	76.46315	113.43219	555.04504	49.67971	78.01622	455.09891	34.83174	140.60744	445.70309	31.78110	21.77156	392.28391	33.57461	37.28893	434.27423	96.09857	92.48833	499.47882	32.17331	131.41867	493.43469	37.96887	27.73974	476.11517	1031.35986	172.55856	953.31006	133.81047	256.64481 
69	0.567	734.43597	1426.10669	165.08916	571.51770	1528.56702	161.60883	610.76361	1514.30151	324.11975	609.83209	1521.75745	26.50686	764.75299	1267.40039	170.66617	488.14880	1311.20813	170.32884	676.49835	995.53607	306.33804	679.44031	1001.48871	30.44009	489.02209	1033.97864	226.32762	483.33835	1026.15491	120.96008	566.28912	829.59076	-13.06485	551.45227	596.84247	23.32902	652.19763	683.53827	65.69955	474.36615	368.27997	26.87266	375.14673	192.44052	64.33439	456.68387	264.77402	98.90333	685.94183	820.37573	344.78992	737.18488	588.36761	320.31213	769.33490	755.66205	289.28760	759.96539	431.55893	325.41577	828.72015	188.46249	291.69669	853.81537	326.77826	256.36075	785.66638	57.96067	238.58267	1092.92957	116.41838	253.00774	1000.39764	69.14658	316.56680	951.02692	58.25849	307.11011	240.57930	79.86855	113.21554	555.23010	49.02751	78.06957	455.67062	35.23636	140.67632	445.82425	31.82485	21.74252	392.13858	34.29833	37.51311	435.62415	96.66982	92.21583	499.63568	32.14372	131.64288	493.42722	37.63303	27.95700	486.18024	1030.06677	173.64384	958.04718	129.23889	253.49568 
70	0.575	743.70483	1425.32507	166.97737	580.59180	1527.57605	163.44930	619.58936	1513.01587	325.87524	619.06897	1521.08130	28.18580	774.43634	1266.90393	172.08354	497.77728	1310.06335	171.25331	687.02240	994.80182	307.10544	689.48895	1000.38397	31.32567	499.32431	1032.88538	227.44012	493.41837	1025.01343	121.92663	575.83466	828.81232	-12.41050	560.51849	596.04950	23.56116	661.77386	682.42950	65.77986	480.83676	368.99512	26.78800	378.43250	194.47855	64.20551	461.66449	265.85782	99.23097	696.37054	819.19122	345.71799	747.59882	587.13934	320.71515	781.75470	756.07727	290.92685	768.57892	430.55701	325.30344	834.50244	186.98051	291.52438	860.57690	324.79425	255.74022	788.06842	58.93587	239.54276	1096.57593	108.51913	247.08813	1004.39093	63.39684	313.07608	954.61298	53.63390	304.07910	242.17923	83.87650	113.50930	555.46497	48.68958	77.85358	456.27841	35.61044	140.57074	445.87317	31.91532	21.70166	392.55533	35.07314	37.83001	436.92325	98.18748	91.23558	499.92148	32.22992	131.61142	493.47559	37.48861	27.92806	496.37134	1028.94934	174.68338	962.88177	126.66317	251.39842 
71	0.583	753.01660	1424.72083	168.73668	589.59821	1526.77344	165.35991	628.49323	1511.85474	327.76715	628.19714	1520.59460	29.93446	784.16180	1266.53906	173.87718	507.49686	1309.09741	172.21306	697.64911	994.21484	307.97095	699.64813	999.42548	32.28611	509.79248	1032.07019	228.57072	503.62225	1024.08850	122.97859	586.00220	828.28424	-11.87246	570.20660	595.50696	23.67698	671.73834	681.36798	65.81633	487.79788	369.44232	26.69297	381.56143	197.41299	63.72816	466.84235	266.51440	99.19349	705.88196	818.02576	346.50381	757.09521	585.93005	320.97595	793.75879	755.37866	291.68091	777.52032	429.62863	325.68427	840.81018	185.40945	291.73068	867.28424	322.94589	254.95226	790.23370	60.18081	240.07065	1100.09546	99.55733	242.78551	1007.34045	56.49125	309.65851	957.12616	49.66220	302.39529	243.83727	88.69382	113.31406	555.99701	48.22088	77.81324	456.88876	36.03014	140.34692	446.12637	32.17299	21.73730	393.60251	35.79671	38.30619	438.78314	98.65094	90.68511	500.29324	32.27409	131.55980	493.95685	37.41478	27.86377	506.70737	1028.07935	175.77466			 
72	0.592	762.27777	1424.38013	170.53654	598.71344	1526.17590	167.28104	637.46881	1510.79321	329.65759	637.27448	1520.19202	31.75665	793.96796	1266.28406	175.39868	517.26794	1308.23071	173.34389	708.48663	994.11365	308.77545	709.71631	998.54547	33.19007	520.34174	1031.39233	229.78078	513.83368	1023.32666	124.16922	596.67493	827.32678	-10.81488	580.39996	594.53503	24.31236	682.12665	680.30731	66.01949	495.36740	369.60229	26.78387	385.54678	200.89734	63.35953	472.37216	267.46735	99.07649	714.94073	817.19342	347.08636	766.13910	585.05383	321.03336	805.41913	754.42126	292.23389	787.02539	429.03232	326.81854	847.31555	183.78987	292.18222	873.55884	320.82220	253.74306	792.13251	61.46078	240.48273	1103.27576	90.57958	240.85458	1009.66541	50.88287	308.87430	959.57947	44.73854	301.15265	245.92987	94.10921	112.77889	556.29730	47.69275	77.74390	457.44040	36.55083	140.22240	446.31897	32.14610	21.67922	394.97141	36.84535	38.51097	441.25089	98.94994	90.54815	500.52066	32.41045	131.60780	494.14612	37.07716	27.89172	517.08771	1027.35950	176.97501			 
73	0.600	771.62683	1424.27319	172.19843	607.86023	1525.65332	169.33459	646.50964	1509.89697	331.45294	646.31909	1519.91248	33.55488	803.82178	1266.16406	177.00920	527.02142	1307.51770	174.44600	719.43286	994.54236	309.90475	719.94824	997.96960	34.17243	530.97894	1030.83313	231.18559	524.19159	1022.56702	125.47985	608.05676	826.61707	-10.08370	591.30249	593.81067	24.62133	694.20593	679.64532	66.23269	503.48105	370.30051	26.62475	390.16409	204.13121	63.27411	478.37350	268.82715	98.93490	723.89783	816.62451	347.66187	775.08130	584.44122	321.08383	816.38245	752.95807	292.40131	796.67395	428.31549	328.24564	853.37128	182.10242	292.59332	879.52393	318.76785	252.88771	794.03345	62.61325	240.55449	1105.86365	82.43745	241.19757	1011.33044	45.50452	309.09991	961.05188	41.12466	301.62079	248.41034	100.36162	112.09541	556.66504	47.19115	77.76551	458.22568	37.20526	140.14180	446.60602	32.25182	21.64934	396.67813	37.96771	38.66476	444.01270	99.55491	90.36805	500.83170	32.63116	131.77058	494.37094	36.82393	28.03958	527.58527	1026.70007	178.33272			 
74	0.608	780.94379	1424.34790	173.87447	617.05890	1525.28003	171.35939	655.78027	1509.23987	333.38141	655.23541	1519.77283	35.39804	813.79089	1266.39294	178.38585	536.90417	1306.95203	175.63217	730.13019	995.11896	310.78131	730.17639	997.33655	35.19022	541.42432	1030.37708	232.18639	534.55420	1022.00519	126.77879	620.43304	824.97028	-10.25770	603.19940	592.14941	24.02513	706.43073	678.98053	66.65390	512.78052	371.05942	26.46220	395.71689	207.34819	63.78897	485.15735	270.77765	98.85501	733.42810	816.42279	348.32535	784.59662	584.19562	321.22220	826.41907	750.77606	291.49805	806.08734	427.58032	329.58896	858.57635	180.65314	293.13208	885.00214	316.67239	252.17169	795.32709	63.71236	240.61078	1108.01807	75.33832	242.42358	1012.34045	40.40365	309.70251	961.87146	37.82101	302.31393	252.00769	106.76306	111.64086	557.03094	46.67493	77.63474	458.97165	37.77187	139.64177	446.99146	32.52928	21.35901	398.50702	39.36174	38.53390	446.92148	100.75538	89.91445	501.03326	32.75844	131.63931	494.68680	36.69951	27.89140	537.98926	1026.19116	179.48259			 
75	0.617	790.39191	1424.57104	175.44063	626.31549	1525.13904	173.25810	665.18518	1508.78223	335.26575	664.10461	1519.78564	37.29422	823.66583	1266.65710	179.73825	546.77667	1306.64063	176.93806	740.63788	995.99371	311.68134	740.35266	996.87701	36.32497	551.73334	1030.16626	233.07516	544.84290	1021.69873	128.12370	633.42499	824.26166	-8.37999	615.71198	591.42615	25.48062	718.18536	678.69733	66.72213	523.17566	371.76645	26.43296	403.80112	211.88898	61.96280	493.06754	273.23477	98.79323	743.41968	816.47308	349.46231	794.57324	584.20197	321.83411	836.08270	748.60956	289.52109	814.74847	427.30765	331.12784	863.22858	179.59731	293.86920	890.50494	314.93069	252.09483	796.49762	64.39094	240.98978	1109.78027	68.86717	243.04144	1012.97791	36.04005	310.10602	962.57098	34.21864	302.20950	255.89824	115.23290	111.22702	557.45685	46.11654	77.42782	460.35019	38.39959	139.36975	447.63068	33.04096	21.41873	401.31686	41.15978	38.98076	450.53162	101.89433	89.23440	501.54858	32.87872	131.69502	494.80417	36.68339	27.96712	548.28815	1025.93250	180.59944			 
